<svg fill="#fff" width="800" height="800" viewBox="0 0 32 32" xmlns="http://www.w3.org/2000/svg"><path d="M20.188 21.281c1.469.813 2.313 2.188 2.219 3.594-.094.875-.094.906-1.219 1.031-.719.094-5.094.156-9.594.156-5.094 0-10.406-.063-10.813-.156-1.5-.406-.688-3.188 1.344-4.469 1.563-1.031 4.75-2.563 5.594-2.75 1.188-.25 1.344-.969.031-3.313-.313-.531-.688-2.125-.719-3.813-.063-2.688.5-4.531 2.844-5.406a4.31 4.31 0 011.406-.25c1.563 0 3.031.875 3.625 2.156.844 1.719.5 6.219-.406 7.844-1 1.875-.906 2.438.25 2.75.75.188 3.094 1.344 5.438 2.625z"/></svg>