<svg width="113" height="224" fill="none" xmlns="http://www.w3.org/2000/svg"><mask id="a" style="mask-type:alpha" maskUnits="userSpaceOnUse" x="0" y="0" width="113" height="224"><path fill="#D9D9D9" d="M0 0h113v224H0z"/></mask><g mask="url(#a)"><path fill-rule="evenodd" clip-rule="evenodd" d="M1.144-.002c1.042.208 1.867.937 2.909 1.144C1.136 3.84.72 6.953 2.385 10.897 4.677 8.822 6.968 6.54 9.26 4.254c-1.25 3.53-2.292 7.267-3.334 11.002h-10.83A880.12 880.12 0 00-8.03 3.84c1.874 2.284 3.75 4.567 5.625 6.85C-1.364 7.37-.322 3.84-2.821.728l3.965-.73zm-9.384 16.71a126.227 126.227 0 0117.707 0c-1.25 2.076-2.291 4.152-3.54 6.227C3.842 36.218 4.052 49.71 3.842 62.993c-.624 4.98 2.709 9.132 5 13.283-2.917 1.66-5.624 3.528-8.541 5.188-2.708-1.66-5.417-3.528-8.124-5.398 1.666-3.527 5-6.64 4.789-10.79.211-12.661 0-25.113-1.04-37.775-.208-3.944-2.707-7.263-4.167-10.793z" fill="#9E906A" fill-opacity=".05"/><mask id="b" style="mask-type:luminance" maskUnits="userSpaceOnUse" x="-68" y="34" width="182" height="180"><path d="M-67.114 34.636H113v178.878H-67.114V34.636z" fill="#fff"/></mask><g mask="url(#b)"><path fill-rule="evenodd" clip-rule="evenodd" d="M-45.737 37.67c7.292-3.113 15.207-2.904 22.707-2.282-1.457 2.282-2.917 4.567-4.582 6.85-.626-.83-1.668-2.492-2.292-3.32-5.418 1.659-11.458 3.113-14.166 8.508 4.375 1.245 8.958 2.282 13.54 3.113-6.248.829-12.498 1.245-18.748 1.868-6.25 8.925-6.666 20.754-.834 29.887 18.125 30.718 55.206 43.379 74.787 73.058 4.167-2.282 9.791-3.944 10.625-9.34 1.042-6.849-.834-13.699-1.25-20.546 10.625-3.114 21.248-7.058 30.206-13.699 14.166-9.548 23.123-24.49 31.457-39.019-.834 12.867-1.25 26.357-8.124 37.773-7.292 11.001-20.208 16.603-31.457 22.415 18.957-.623 38.54.624 56.872-5.604v4.152-2.49c-5.418 6.018-11.459 12.245-19.79 14.113-12.5 3.321-25.207-.416-37.708-2.075 15 12.659 33.125 20.546 51.248 27.396-12.709.624-26.04.207-37.915-5.396-6.249-2.906-11.457-7.472-17.082-11.624 5 13.283 13.54 24.907 25.831 32.172-13.122-1.454-23.123-10.171-32.08-18.889.625 6.642 1.874 12.869 3.75 19.301-6.666-4.564-10.625-11.621-11.667-19.51-.624 3.946-1.041 8.098-2.707 12.038-2.084-4.978.416-14.112-6.458-15.564 1.25 6.642 3.333 13.281 2.083 20.132-2.291 12.868-10.625 23.868-20.416 32.17.626-4.981.834-10.17 2.291-15.15 3.125-6.02 8.334-11.415 8.334-18.68.624-13.699-10.417-23.868-19.999-31.755-22.915-18.058-49.79-34.454-63.33-61.435-7.082-12.868-4.582-29.472 5.415-40.06-3.123-.205-6.456-.62-9.581-.828 7.5-1.245 14.164-4.773 21.04-7.68z" fill="#9E906A" fill-opacity=".05"/></g><path fill-rule="evenodd" clip-rule="evenodd" d="M24.05 35.595c9.584-1.243 19.582-.207 28.123 4.567 4.792 2.905 10.209 3.943 15.624 5.188-2.292.209-6.876.623-8.956.829 8.124 10.38 11.457 24.7 6.04 37.153-9.583 22.831-30.415 37.982-49.164 52.718.416-6.435 1.042-12.66 1.668-19.094C31.55 105.125 47.59 93.293 54.257 75.238c3.125-7.888 0-15.982-4.167-22.83-6.04-.624-12.29-1.04-18.331-2.076 4.582-1.245 10.623-.415 12.916-5.397-4.792-2.49-11.459-8.302-16.46-3.113-1.04-1.66-3.122-4.773-4.166-6.227z" fill="#9E906A" fill-opacity=".05"/><path fill-rule="evenodd" clip-rule="evenodd" d="M-43.654 85.824c.626-6.643 8.75-11.416 15-8.51 7.29 2.697 16.04-2.699 22.498 2.49C-3.863 81.257-1.782 82.71.51 84.37c3.543-2.283 6.666-4.773 10.417-6.642 5.622-.414 11.457.415 17.29.624 5.623-4.775 15.207.207 16.248 7.056-4.998-5.397-12.498-2.906-18.956-3.114-4.999-.414-9.584 1.869-13.958 3.945l-.832 1.452v5.81c1.041.624 3.333 1.662 4.583 2.285C10.509 101.39 4.885 106.37.51 112.39c-4.583-6.02-9.582-11.416-15.208-16.19 1.25-.624 3.75-2.075 5.209-2.698-.208-2.283-.208-4.773-.416-7.263-8.958-5.19-19.375-3.945-29.374-4.152-1.042 1.038-3.333 2.906-4.375 3.737z" fill="#9E906A" fill-opacity=".05"/><path fill-rule="evenodd" clip-rule="evenodd" d="M1.551 114.88c4.167-5.603 8.75-10.793 13.958-15.358-.833 12.037-2.5 24.075-3.125 36.113-3.335-2.699-7.082-5.396-9.999-8.511-1.458-3.941-.416-8.301-.834-12.244z" fill="#9E906A" fill-opacity=".05"/><mask id="c" style="mask-type:luminance" maskUnits="userSpaceOnUse" x="-11" y="142" width="22" height="109"><path d="M-10.787 142.927h21.563V251h-21.563V142.927z" fill="#fff"/></mask><g mask="url(#c)"><path fill-rule="evenodd" clip-rule="evenodd" d="M-10.533 143.107A223.23 223.23 0 01.72 152.446c3.333 3.114 7.707 5.813 9.79 9.963a463.145 463.145 0 01-4.376 53.753c-1.04 8.512-3.957 26.08-4.582 34.797l-2.293-9.474c-1.04-10.377-4.164-20.546-5.415-31.132-2.916-22.207-3.333-44.831-4.377-67.246z" fill="#9E906A" fill-opacity=".05"/></g></g></svg>