<svg width="28" height="28" viewBox="0 0 28 28" fill="none" xmlns="http://www.w3.org/2000/svg">
<path d="M28 14C28 21.732 21.732 28 14 28C6.26801 28 0 21.732 0 14C0 6.26801 6.26801 0 14 0C21.732 0 28 6.26801 28 14Z" fill="#4E4436"/>
<path fill-rule="evenodd" clip-rule="evenodd" d="M14 27C21.1797 27 27 21.1797 27 14C27 6.8203 21.1797 1 14 1C6.8203 1 1 6.8203 1 14C1 21.1797 6.8203 27 14 27ZM14 28C21.732 28 28 21.732 28 14C28 6.26801 21.732 0 14 0C6.26801 0 0 6.26801 0 14C0 21.732 6.26801 28 14 28Z" fill="#C3AD7C"/>
<path d="M23 14C23 18.9706 18.9706 23 14 23C9.02944 23 5 18.9706 5 14C5 9.02944 9.02944 5 14 5C18.9706 5 23 9.02944 23 14Z" fill="url(#paint0_linear_36_577)"/>
<g opacity="0.1">
<path d="M22.6298 12.1191L11.9509 22.798C12.2444 22.8531 12.538 22.9081 12.8316 22.9448L22.7766 12.9999C22.7399 12.7063 22.6848 12.4127 22.6298 12.1191Z" fill="black"/>
<path d="M22.0243 10.2661L10.116 22.1744C10.3546 22.2845 10.5931 22.3762 10.85 22.4679L22.3362 10.9817C22.2261 10.7432 22.1344 10.5046 22.0243 10.2661Z" fill="black"/>
<path d="M20.2078 7.67876C20.1344 7.60537 20.0427 7.53197 19.9509 7.42188L7.25366 20.1191C7.34541 20.2292 7.43715 20.3026 7.51054 20.376C7.58394 20.4494 7.67568 20.5228 7.76742 20.6329L20.4647 7.93565C20.3546 7.82555 20.2812 7.75215 20.2078 7.67876Z" fill="black"/>
<path d="M20.2078 20.376C21.0335 19.5503 21.6757 18.6145 22.116 17.5503L17.3821 22.2842C18.4463 21.8439 19.3821 21.2017 20.2078 20.376Z" fill="black"/>
<path d="M15.3454 22.8719L22.7032 15.5141C22.7583 15.1288 22.8133 14.7618 22.8133 14.3765L14.1895 23.0003C14.5931 22.982 14.9784 22.9453 15.3454 22.8719Z" fill="black"/>
<path d="M16.8867 5.56885L5.40045 17.0551C5.49219 17.2936 5.58394 17.5505 5.69403 17.789L17.6023 5.88078C17.3638 5.75234 17.1252 5.66059 16.8867 5.56885Z" fill="black"/>
<path d="M12.3362 5.14679L4.97842 12.5046C4.90502 12.9266 4.86832 13.3303 4.84998 13.7339L13.5839 5C13.1619 5.0367 12.7399 5.0734 12.3362 5.14679Z" fill="black"/>
<path d="M7.51055 7.67876C6.68486 8.50445 6.04266 9.44024 5.60229 10.5045L10.3362 5.77051C9.27202 6.21087 8.31789 6.85308 7.51055 7.67876Z" fill="black"/>
<path d="M18.5381 6.35791L6.18945 18.7065C6.31789 18.9267 6.46468 19.1286 6.59312 19.312L19.1619 6.77993C18.9601 6.63314 18.7583 6.48635 18.5381 6.35791Z" fill="black"/>
<path d="M14.8867 5.11035L4.94171 15.0553C4.97841 15.3489 5.03345 15.6425 5.0885 15.936L15.7674 5.25714C15.4738 5.18374 15.1802 5.1287 14.8867 5.11035Z" fill="black"/>
<path d="M21.1069 8.72461L8.5564 21.2751C8.75823 21.4219 8.96007 21.5503 9.1619 21.6787L21.5105 9.33011C21.3821 9.12828 21.2536 8.9081 21.1069 8.72461Z" fill="black"/>
</g>
<defs>
<linearGradient id="paint0_linear_36_577" x1="14" y1="5" x2="14" y2="23" gradientUnits="userSpaceOnUse">
<stop stop-color="#FBE9C4"/>
<stop offset="1" stop-color="#BBA483"/>
</linearGradient>
</defs>
</svg>
